<svg width="178" height="178" viewBox="0 0 178 178" fill="none" xmlns="http://www.w3.org/2000/svg">
<circle cx="89" cy="89" r="89" fill="#BB4430"/>
<path d="M40.4074 120.808C34.1576 120.808 28.9584 119.569 24.8098 117.091C20.6612 114.612 17.5633 111.164 15.5159 106.746C13.4686 102.274 12.4449 97.0482 12.4449 91.0678C12.4449 85.249 13.4955 80.1306 15.5967 75.7126C17.698 71.2408 20.8229 67.7657 24.9714 65.2873C29.12 62.7551 34.2384 61.489 40.3265 61.489C44.4751 61.489 47.8963 61.92 50.5902 62.782C53.338 63.5902 55.3853 64.6947 56.7323 66.0955C58.0792 67.4963 58.7527 69.0857 58.7527 70.8637C58.7527 72.8571 57.8906 74.5273 56.1665 75.8743C54.4425 77.2212 51.9371 77.8947 48.6506 77.8947C48.6506 76.1167 48.3812 74.3657 47.8425 72.6416C47.3037 70.9175 46.3878 69.4898 45.0947 68.3584C43.8016 67.2269 42.0237 66.6612 39.7608 66.6612C36.3665 66.6612 33.6457 67.631 31.5984 69.5706C29.6049 71.4563 28.1771 74.2041 27.3151 77.8139C26.4531 81.4237 26.022 85.8416 26.022 91.0678C26.022 96.24 26.5339 100.55 27.5576 103.998C28.6351 107.447 30.3592 110.033 32.7298 111.757C35.1543 113.481 38.36 114.343 42.3469 114.343C44.9869 114.343 47.2498 113.966 49.1355 113.211C51.0212 112.403 52.6106 111.407 53.9037 110.221C55.2506 109.036 56.382 107.851 57.298 106.665C57.729 106.989 58.0522 107.473 58.2678 108.12C58.5371 108.767 58.6718 109.44 58.6718 110.14C58.6718 111.272 58.3486 112.457 57.702 113.696C57.1094 114.936 56.1127 116.094 54.7118 117.171C53.311 118.249 51.4253 119.138 49.0547 119.838C46.738 120.485 43.8555 120.808 40.4074 120.808ZM105.543 120H65.2154V111.514L79.6816 96.8865C82.5909 93.8694 84.9346 91.3641 86.7126 89.3706C88.4905 87.3233 89.7836 85.4914 90.5918 83.8751C91.3999 82.2049 91.804 80.4269 91.804 78.5412C91.804 76.2245 91.1575 74.5004 89.8644 73.369C88.6252 72.2375 86.9281 71.6718 84.773 71.6718C82.564 71.6718 80.4089 72.1837 78.3077 73.2073C76.2065 74.231 73.9975 75.6857 71.6807 77.5714L65.0538 69.7322C66.724 68.2775 68.475 66.9306 70.3069 65.6914C72.1926 64.4522 74.3477 63.4555 76.7722 62.7012C79.2505 61.8931 82.2138 61.489 85.662 61.489C89.4334 61.489 92.6661 62.1894 95.3599 63.5902C98.1077 64.9371 100.209 66.7959 101.664 69.1665C103.172 71.4833 103.926 74.1233 103.926 77.0865C103.926 79.511 103.549 81.7469 102.795 83.7943C102.095 85.8416 101.044 87.8351 99.6432 89.7747C98.2963 91.6604 96.6261 93.6269 94.6326 95.6743C92.6391 97.6678 90.3763 99.8498 87.844 102.22L80.4089 109.171V109.736H105.543V120ZM142.417 120.808C135.736 120.808 130.186 119.569 125.768 117.091C121.404 114.612 118.118 111.164 115.909 106.746C113.754 102.274 112.676 97.0482 112.676 91.0678C112.676 85.249 113.808 80.1306 116.07 75.7126C118.333 71.2408 121.701 67.7657 126.172 65.2873C130.698 62.7551 136.248 61.489 142.821 61.489C147.292 61.489 151.01 61.92 153.973 62.782C156.99 63.5902 159.253 64.6947 160.762 66.0955C162.27 67.4963 163.025 69.0857 163.025 70.8637C163.025 72.7494 162.136 74.3657 160.358 75.7126C158.58 77.0596 155.994 77.7331 152.599 77.7331C152.599 75.5241 152.222 73.6114 151.468 71.9951C150.768 70.3249 149.69 69.0318 148.235 68.1159C146.781 67.1461 144.895 66.6612 142.578 66.6612C138.645 66.6612 135.466 67.631 133.042 69.5706C130.671 71.4563 128.947 74.2041 127.87 77.8139C126.792 81.4237 126.253 85.8416 126.253 91.0678C126.253 96.24 126.819 100.631 127.95 104.241C129.082 107.851 130.914 110.598 133.446 112.484C136.032 114.37 139.426 115.313 143.629 115.313C144.652 115.313 145.649 115.286 146.619 115.232C147.643 115.124 148.612 114.962 149.528 114.747V102.867C149.528 101.412 149.313 100.281 148.882 99.4727C148.451 98.6106 147.804 98.018 146.942 97.6947C146.134 97.3175 145.083 97.129 143.79 97.129H142.74V92.8457H168.116V97.129H167.065C165.988 97.129 165.072 97.3175 164.318 97.6947C163.617 98.0718 163.105 98.6914 162.782 99.5535C162.459 100.416 162.297 101.628 162.297 103.19V116.444C159.172 117.899 155.994 119.003 152.761 119.758C149.528 120.458 146.08 120.808 142.417 120.808Z" fill="white"/>
</svg>
