<?xml version="1.0" standalone="no"?>
<!DOCTYPE svg PUBLIC "-//W3C//DTD SVG 20010904//EN"
 "http://www.w3.org/TR/2001/REC-SVG-20010904/DTD/svg10.dtd">
<svg version="1.0" xmlns="http://www.w3.org/2000/svg"
 width="512.000000pt" height="512.000000pt" viewBox="0 0 512.000000 512.000000"
 preserveAspectRatio="xMidYMid meet">
<metadata>
Created by potrace 1.14, written by Peter Selinger 2001-2017
</metadata>
<g transform="translate(0.000000,512.000000) scale(0.100000,-0.100000)"
fill="#000000" stroke="none">
<path d="M2669 4906 c-2 -2 -37 -7 -77 -10 -40 -4 -78 -9 -85 -11 -7 -2 -30
-7 -52 -10 -22 -3 -80 -15 -130 -27 -49 -12 -93 -22 -97 -22 -3 -1 -10 -4 -14
-8 -4 -5 -14 -8 -21 -8 -28 0 -211 -74 -325 -131 -215 -107 -379 -227 -563
-413 -222 -225 -374 -460 -480 -744 -39 -102 -83 -254 -91 -311 -2 -19 -9 -52
-14 -75 -33 -147 -35 -556 -4 -709 2 -12 6 -34 9 -49 14 -74 40 -173 71 -270
21 -65 33 -121 32 -145 l-3 -38 -413 0 -412 0 0 -251 0 -251 397 -1 c219 0
405 -1 415 -1 15 -1 16 -33 16 -373 0 -205 1 -391 1 -413 l1 -40 243 1 c133 1
245 2 249 3 4 0 9 147 10 326 l3 325 45 -43 c25 -23 71 -64 102 -91 72 -60
124 -138 142 -213 8 -32 17 -114 20 -183 3 -69 9 -192 12 -275 4 -82 7 -165 7
-182 0 -22 4 -33 13 -33 11 0 14 17 15 68 0 37 2 117 4 177 10 315 7 418 -14
485 -29 91 -62 136 -216 292 -74 75 -135 143 -135 152 0 19 -43 17 436 18
l391 1 -1 251 -1 251 -410 0 -410 0 -5 414 -5 414 -237 0 -237 -1 4 67 c12
211 58 420 136 616 37 93 63 146 131 271 14 27 55 90 91 141 373 526 960 832
1607 836 391 3 774 -113 1100 -333 47 -32 95 -66 107 -76 12 -11 36 -30 54
-44 63 -49 229 -221 267 -278 57 -86 103 -198 118 -292 3 -14 7 -36 9 -50 3
-14 7 -34 9 -46 4 -19 14 -90 21 -151 2 -13 6 -40 9 -60 3 -21 8 -58 12 -83
17 -131 18 -134 193 -461 20 -37 52 -98 73 -135 20 -38 52 -97 72 -132 45 -79
68 -155 57 -185 -5 -12 -22 -33 -39 -47 -16 -14 -71 -63 -122 -110 -51 -47
-102 -93 -114 -103 -81 -70 -144 -141 -150 -167 -3 -17 -6 -184 -6 -373 l-1
-342 -25 -52 c-30 -63 -80 -107 -149 -130 -42 -14 -93 -17 -320 -17 -233 -1
-405 7 -424 18 -3 2 -28 7 -56 10 -184 25 -449 124 -646 242 -64 38 -92 45
-65 15 19 -21 169 -124 219 -151 17 -9 57 -30 87 -47 143 -76 328 -137 525
-173 158 -29 266 -38 506 -40 137 -2 177 1 220 15 91 30 150 74 207 153 54 76
66 135 77 377 2 55 7 159 11 230 3 72 7 147 7 168 0 40 1 41 127 148 326 277
325 276 325 404 0 86 -17 138 -80 260 -165 314 -284 565 -290 610 -3 28 -10
79 -15 115 -5 36 -12 90 -15 120 -6 58 -29 195 -44 270 -24 115 -89 254 -169
361 -48 66 -174 194 -262 269 -36 30 -71 61 -78 68 -29 26 -241 163 -322 206
-138 73 -390 167 -515 192 -72 14 -135 25 -165 30 -19 2 -64 8 -100 13 -61 9
-383 14 -391 7z"/>
</g>
</svg>
