<svg xmlns="http://www.w3.org/2000/svg" version="1.1" xmlns:xlink="http://www.w3.org/1999/xlink" xmlns:svgjs="http://svgjs.com/svgjs" width="1440" height="560" preserveAspectRatio="none" viewBox="0 0 1440 560"><g mask="url(&quot;#SvgjsMask1050&quot;)" fill="none"><rect width="1440" height="560" x="0" y="0" fill="url(#SvgjsLinearGradient1051)"></rect><path d="M401.855,321.029C457.48,318.783,488.65,263.96,517.015,216.058C546.213,166.75,583.786,110.69,556.129,60.501C527.978,9.416,460.069,3.432,401.855,7.077C350.906,10.267,304.194,34.252,277.77,77.93C250.333,123.282,245.278,178.847,269.376,226.058C295.852,277.928,343.666,323.379,401.855,321.029" fill="rgba(0, 51, 102, 0.42)" class="triangle-float2"></path><path d="M241.87450948993836 363.981041318761L134.71801432286452 333.2544107755166 103.9913837796201 440.41090594259043 211.14787894669394 471.13753648583486z" fill="rgba(0, 51, 102, 0.42)" class="triangle-float1"></path><path d="M694.105,178.246C734.97,176.705,775.51,165.052,798.453,131.2C824.528,92.726,835.053,43.198,813.56,1.988C790.614,-42.009,743.679,-71.037,694.105,-68.874C647.526,-66.842,614.536,-28.819,591.435,11.679C568.605,51.702,550.999,100.396,575.176,139.619C598.617,177.649,649.463,179.929,694.105,178.246" fill="rgba(0, 51, 102, 0.42)" class="triangle-float1"></path><path d="M661.413,496.114C704.091,495.169,742.096,472.228,764.678,436.002C788.801,397.304,799.186,349.45,778.016,309.061C755.453,266.014,709.953,236.534,661.413,238.988C616.115,241.278,585.523,280.203,563.586,319.901C542.569,357.933,528.823,402.765,549.914,440.756C571.501,479.64,616.95,497.098,661.413,496.114" fill="rgba(0, 51, 102, 0.42)" class="triangle-float1"></path><path d="M1074.4463254129118 207.59676871552708L1069.1052612085282 360.54483607257043 1222.0533285655715 365.8859002769541 1227.3943927699552 212.9378329199107z" fill="rgba(0, 51, 102, 0.42)" class="triangle-float1"></path><path d="M87.57056256818603 7.506298237363183L-0.20689014657943972-58.638756763554866 21.425507567267985 95.28375095212866z" fill="rgba(0, 51, 102, 0.42)" class="triangle-float2"></path><path d="M264.1201522771837 467.61829591309686L248.51882664705246 535.1950614868614 357.6846378227648 524.808667145176z" fill="rgba(0, 51, 102, 0.42)" class="triangle-float3"></path></g><defs><mask id="SvgjsMask1050"><rect width="1440" height="560" fill="#ffffff"></rect></mask><linearGradient x1="15.28%" y1="-39.29%" x2="84.72%" y2="139.29%" gradientUnits="userSpaceOnUse" id="SvgjsLinearGradient1051"><stop stop-color="rgba(45, 156, 219, 1)" offset="0.17"></stop><stop stop-color="rgba(155, 81, 224, 1)" offset="1"></stop></linearGradient><style>
            @keyframes float1 {
                0%{transform: translate(0, 0)}
                50%{transform: translate(-10px, 0)}
                100%{transform: translate(0, 0)}
            }

            .triangle-float1 {
                animation: float1 5s infinite;
            }

            @keyframes float2 {
                0%{transform: translate(0, 0)}
                50%{transform: translate(-5px, -5px)}
                100%{transform: translate(0, 0)}
            }

            .triangle-float2 {
                animation: float2 4s infinite;
            }

            @keyframes float3 {
                0%{transform: translate(0, 0)}
                50%{transform: translate(0, -10px)}
                100%{transform: translate(0, 0)}
            }

            .triangle-float3 {
                animation: float3 6s infinite;
            }
        </style></defs></svg>