<svg xmlns="http://www.w3.org/2000/svg" version="1.1" xmlns:xlink="http://www.w3.org/1999/xlink" xmlns:svgjs="http://svgjs.com/svgjs" width="1440" height="560" preserveAspectRatio="none" viewBox="0 0 1440 560"><g mask="url(&quot;#SvgjsMask1006&quot;)" fill="none"><rect width="1440" height="560" x="0" y="0" fill="url(#SvgjsLinearGradient1007)"></rect><path d="M-40.07 364.52L-40.07 364.52" stroke="rgba(33, 19, 101, 1)" stroke-width="1.5"></path><path d="M-40.07 364.52L45.62 340.27" stroke="rgba(33, 19, 101, 1)" stroke-width="1.5"></path><path d="M-40.07 364.52L-83.9 500.11" stroke="rgba(33, 19, 101, 1)" stroke-width="1.5"></path><path d="M-40.07 364.52L57.08 536.31" stroke="rgba(33, 19, 101, 1)" stroke-width="1.5"></path><path d="M-40.07 364.52L256.98 372.53" stroke="rgba(33, 19, 101, 1)" stroke-width="1.5"></path><path d="M-40.07 364.52L-39.31 698.52" stroke="rgba(33, 19, 101, 1)" stroke-width="1.5"></path><path d="M-40.07 364.52L261.67 535.55" stroke="rgba(33, 19, 101, 1)" stroke-width="1.5"></path><path d="M-83.9 500.11L-83.9 500.11" stroke="rgba(33, 19, 101, 1)" stroke-width="1.5"></path><path d="M-83.9 500.11L57.08 536.31" stroke="rgba(33, 19, 101, 1)" stroke-width="1.5"></path><path d="M-83.9 500.11L-39.31 698.52" stroke="rgba(33, 19, 101, 1)" stroke-width="1.5"></path><path d="M-83.9 500.11L45.62 340.27" stroke="rgba(33, 19, 101, 1)" stroke-width="1.5"></path><path d="M-83.9 500.11L85.38 695.79" stroke="rgba(33, 19, 101, 1)" stroke-width="1.5"></path><path d="M-39.31 698.52L-39.31 698.52" stroke="rgba(33, 19, 101, 1)" stroke-width="1.5"></path><path d="M-39.31 698.52L85.38 695.79" stroke="rgba(33, 19, 101, 1)" stroke-width="1.5"></path><path d="M-39.31 698.52L57.08 536.31" stroke="rgba(33, 19, 101, 1)" stroke-width="1.5"></path><path d="M45.62 340.27L45.62 340.27" stroke="rgba(33, 19, 101, 1)" stroke-width="1.5"></path><path d="M45.62 340.27L57.08 536.31" stroke="rgba(33, 19, 101, 1)" stroke-width="1.5"></path><path d="M57.08 536.31L57.08 536.31" stroke="rgba(33, 19, 101, 1)" stroke-width="1.5"></path><path d="M57.08 536.31L85.38 695.79" stroke="rgba(33, 19, 101, 1)" stroke-width="1.5"></path><path d="M85.38 695.79L85.38 695.79" stroke="rgba(33, 19, 101, 1)" stroke-width="1.5"></path><path d="M85.38 695.79L213.89 664.99" stroke="rgba(33, 19, 101, 1)" stroke-width="1.5"></path><path d="M256.98 372.53L256.98 372.53" stroke="rgba(33, 19, 101, 1)" stroke-width="1.5"></path><path d="M256.98 372.53L371.33 364.72" stroke="rgba(33, 19, 101, 1)" stroke-width="1.5"></path><path d="M256.98 372.53L348.2 492.79" stroke="rgba(33, 19, 101, 1)" stroke-width="1.5"></path><path d="M256.98 372.53L261.67 535.55" stroke="rgba(33, 19, 101, 1)" stroke-width="1.5"></path><path d="M256.98 372.53L45.62 340.27" stroke="rgba(33, 19, 101, 1)" stroke-width="1.5"></path><path d="M256.98 372.53L57.08 536.31" stroke="rgba(33, 19, 101, 1)" stroke-width="1.5"></path><path d="M256.98 372.53L514.23 507.42" stroke="rgba(33, 19, 101, 1)" stroke-width="1.5"></path><path d="M261.67 535.55L261.67 535.55" stroke="rgba(33, 19, 101, 1)" stroke-width="1.5"></path><path d="M261.67 535.55L348.2 492.79" stroke="rgba(33, 19, 101, 1)" stroke-width="1.5"></path><path d="M261.67 535.55L213.89 664.99" stroke="rgba(33, 19, 101, 1)" stroke-width="1.5"></path><path d="M261.67 535.55L371.33 364.72" stroke="rgba(33, 19, 101, 1)" stroke-width="1.5"></path><path d="M261.67 535.55L57.08 536.31" stroke="rgba(33, 19, 101, 1)" stroke-width="1.5"></path><path d="M261.67 535.55L402.94 691.4" stroke="rgba(33, 19, 101, 1)" stroke-width="1.5"></path><path d="M213.89 664.99L213.89 664.99" stroke="rgba(33, 19, 101, 1)" stroke-width="1.5"></path><path d="M213.89 664.99L402.94 691.4" stroke="rgba(33, 19, 101, 1)" stroke-width="1.5"></path><path d="M371.33 364.72L371.33 364.72" stroke="rgba(33, 19, 101, 1)" stroke-width="1.5"></path><path d="M371.33 364.72L348.2 492.79" stroke="rgba(33, 19, 101, 1)" stroke-width="1.5"></path><path d="M371.33 364.72L548.64 410.18" stroke="rgba(33, 19, 101, 1)" stroke-width="1.5"></path><path d="M371.33 364.72L514.23 507.42" stroke="rgba(33, 19, 101, 1)" stroke-width="1.5"></path><path d="M348.2 492.79L348.2 492.79" stroke="rgba(33, 19, 101, 1)" stroke-width="1.5"></path><path d="M348.2 492.79L514.23 507.42" stroke="rgba(33, 19, 101, 1)" stroke-width="1.5"></path><path d="M402.94 691.4L402.94 691.4" stroke="rgba(33, 19, 101, 1)" stroke-width="1.5"></path><path d="M402.94 691.4L534.22 651.85" stroke="rgba(33, 19, 101, 1)" stroke-width="1.5"></path><path d="M402.94 691.4L348.2 492.79" stroke="rgba(33, 19, 101, 1)" stroke-width="1.5"></path><path d="M402.94 691.4L514.23 507.42" stroke="rgba(33, 19, 101, 1)" stroke-width="1.5"></path><path d="M402.94 691.4L649.34 551.55" stroke="rgba(33, 19, 101, 1)" stroke-width="1.5"></path><path d="M548.64 410.18L548.64 410.18" stroke="rgba(33, 19, 101, 1)" stroke-width="1.5"></path><path d="M548.64 410.18L514.23 507.42" stroke="rgba(33, 19, 101, 1)" stroke-width="1.5"></path><path d="M548.64 410.18L680.05 358.27" stroke="rgba(33, 19, 101, 1)" stroke-width="1.5"></path><path d="M548.64 410.18L649.34 551.55" stroke="rgba(33, 19, 101, 1)" stroke-width="1.5"></path><path d="M548.64 410.18L348.2 492.79" stroke="rgba(33, 19, 101, 1)" stroke-width="1.5"></path><path d="M514.23 507.42L514.23 507.42" stroke="rgba(33, 19, 101, 1)" stroke-width="1.5"></path><path d="M514.23 507.42L649.34 551.55" stroke="rgba(33, 19, 101, 1)" stroke-width="1.5"></path><path d="M514.23 507.42L534.22 651.85" stroke="rgba(33, 19, 101, 1)" stroke-width="1.5"></path><path d="M534.22 651.85L534.22 651.85" stroke="rgba(33, 19, 101, 1)" stroke-width="1.5"></path><path d="M534.22 651.85L649.34 551.55" stroke="rgba(33, 19, 101, 1)" stroke-width="1.5"></path><path d="M534.22 651.85L548.64 410.18" stroke="rgba(33, 19, 101, 1)" stroke-width="1.5"></path><path d="M534.22 651.85L348.2 492.79" stroke="rgba(33, 19, 101, 1)" stroke-width="1.5"></path><path d="M534.22 651.85L261.67 535.55" stroke="rgba(33, 19, 101, 1)" stroke-width="1.5"></path><path d="M705.43 217.91L705.43 217.91" stroke="rgba(33, 19, 101, 1)" stroke-width="1.5"></path><path d="M705.43 217.91L680.05 358.27" stroke="rgba(33, 19, 101, 1)" stroke-width="1.5"></path><path d="M705.43 217.91L848.96 237.2" stroke="rgba(33, 19, 101, 1)" stroke-width="1.5"></path><path d="M705.43 217.91L794.46 394.9" stroke="rgba(33, 19, 101, 1)" stroke-width="1.5"></path><path d="M705.43 217.91L860.74 91.1" stroke="rgba(33, 19, 101, 1)" stroke-width="1.5"></path><path d="M705.43 217.91L548.64 410.18" stroke="rgba(33, 19, 101, 1)" stroke-width="1.5"></path><path d="M705.43 217.91L942.91 89.73" stroke="rgba(33, 19, 101, 1)" stroke-width="1.5"></path><path d="M680.05 358.27L680.05 358.27" stroke="rgba(33, 19, 101, 1)" stroke-width="1.5"></path><path d="M680.05 358.27L794.46 394.9" stroke="rgba(33, 19, 101, 1)" stroke-width="1.5"></path><path d="M649.34 551.55L649.34 551.55" stroke="rgba(33, 19, 101, 1)" stroke-width="1.5"></path><path d="M649.34 551.55L842.35 535.65" stroke="rgba(33, 19, 101, 1)" stroke-width="1.5"></path><path d="M649.34 551.55L680.05 358.27" stroke="rgba(33, 19, 101, 1)" stroke-width="1.5"></path><path d="M649.34 551.55L794.46 394.9" stroke="rgba(33, 19, 101, 1)" stroke-width="1.5"></path><path d="M860.74 91.1L860.74 91.1" stroke="rgba(33, 19, 101, 1)" stroke-width="1.5"></path><path d="M860.74 91.1L942.91 89.73" stroke="rgba(33, 19, 101, 1)" stroke-width="1.5"></path><path d="M860.74 91.1L848.96 237.2" stroke="rgba(33, 19, 101, 1)" stroke-width="1.5"></path><path d="M860.74 91.1L992.59 -84.38" stroke="rgba(33, 19, 101, 1)" stroke-width="1.5"></path><path d="M860.74 91.1L1099.06 88.76" stroke="rgba(33, 19, 101, 1)" stroke-width="1.5"></path><path d="M848.96 237.2L848.96 237.2" stroke="rgba(33, 19, 101, 1)" stroke-width="1.5"></path><path d="M848.96 237.2L794.46 394.9" stroke="rgba(33, 19, 101, 1)" stroke-width="1.5"></path><path d="M848.96 237.2L948.86 371.59" stroke="rgba(33, 19, 101, 1)" stroke-width="1.5"></path><path d="M848.96 237.2L942.91 89.73" stroke="rgba(33, 19, 101, 1)" stroke-width="1.5"></path><path d="M848.96 237.2L680.05 358.27" stroke="rgba(33, 19, 101, 1)" stroke-width="1.5"></path><path d="M794.46 394.9L794.46 394.9" stroke="rgba(33, 19, 101, 1)" stroke-width="1.5"></path><path d="M794.46 394.9L842.35 535.65" stroke="rgba(33, 19, 101, 1)" stroke-width="1.5"></path><path d="M842.35 535.65L842.35 535.65" stroke="rgba(33, 19, 101, 1)" stroke-width="1.5"></path><path d="M842.35 535.65L940.66 504.97" stroke="rgba(33, 19, 101, 1)" stroke-width="1.5"></path><path d="M842.35 535.65L860.46 709.72" stroke="rgba(33, 19, 101, 1)" stroke-width="1.5"></path><path d="M842.35 535.65L948.86 371.59" stroke="rgba(33, 19, 101, 1)" stroke-width="1.5"></path><path d="M860.46 709.72L860.46 709.72" stroke="rgba(33, 19, 101, 1)" stroke-width="1.5"></path><path d="M860.46 709.72L984.25 677.97" stroke="rgba(33, 19, 101, 1)" stroke-width="1.5"></path><path d="M860.46 709.72L940.66 504.97" stroke="rgba(33, 19, 101, 1)" stroke-width="1.5"></path><path d="M860.46 709.72L649.34 551.55" stroke="rgba(33, 19, 101, 1)" stroke-width="1.5"></path><path d="M860.46 709.72L794.46 394.9" stroke="rgba(33, 19, 101, 1)" stroke-width="1.5"></path><path d="M860.46 709.72L534.22 651.85" stroke="rgba(33, 19, 101, 1)" stroke-width="1.5"></path><path d="M992.59 -84.38L992.59 -84.38" stroke="rgba(33, 19, 101, 1)" stroke-width="1.5"></path><path d="M992.59 -84.38L1100.4 -81.4" stroke="rgba(33, 19, 101, 1)" stroke-width="1.5"></path><path d="M992.59 -84.38L942.91 89.73" stroke="rgba(33, 19, 101, 1)" stroke-width="1.5"></path><path d="M992.59 -84.38L1099.06 88.76" stroke="rgba(33, 19, 101, 1)" stroke-width="1.5"></path><path d="M942.91 89.73L942.91 89.73" stroke="rgba(33, 19, 101, 1)" stroke-width="1.5"></path><path d="M942.91 89.73L1099.06 88.76" stroke="rgba(33, 19, 101, 1)" stroke-width="1.5"></path><path d="M948.86 371.59L948.86 371.59" stroke="rgba(33, 19, 101, 1)" stroke-width="1.5"></path><path d="M948.86 371.59L940.66 504.97" stroke="rgba(33, 19, 101, 1)" stroke-width="1.5"></path><path d="M948.86 371.59L794.46 394.9" stroke="rgba(33, 19, 101, 1)" stroke-width="1.5"></path><path d="M940.66 504.97L940.66 504.97" stroke="rgba(33, 19, 101, 1)" stroke-width="1.5"></path><path d="M940.66 504.97L984.25 677.97" stroke="rgba(33, 19, 101, 1)" stroke-width="1.5"></path><path d="M940.66 504.97L794.46 394.9" stroke="rgba(33, 19, 101, 1)" stroke-width="1.5"></path><path d="M984.25 677.97L984.25 677.97" stroke="rgba(33, 19, 101, 1)" stroke-width="1.5"></path><path d="M984.25 677.97L842.35 535.65" stroke="rgba(33, 19, 101, 1)" stroke-width="1.5"></path><path d="M984.25 677.97L1151.27 502.63" stroke="rgba(33, 19, 101, 1)" stroke-width="1.5"></path><path d="M1100.4 -81.4L1100.4 -81.4" stroke="rgba(33, 19, 101, 1)" stroke-width="1.5"></path><path d="M1100.4 -81.4L1099.06 88.76" stroke="rgba(33, 19, 101, 1)" stroke-width="1.5"></path><path d="M1099.06 88.76L1099.06 88.76" stroke="rgba(33, 19, 101, 1)" stroke-width="1.5"></path><path d="M1099.06 88.76L1117.68 199.72" stroke="rgba(33, 19, 101, 1)" stroke-width="1.5"></path><path d="M1099.06 88.76L1255.59 109.22" stroke="rgba(33, 19, 101, 1)" stroke-width="1.5"></path><path d="M1099.06 88.76L1287.63 227.3" stroke="rgba(33, 19, 101, 1)" stroke-width="1.5"></path><path d="M1117.68 199.72L1117.68 199.72" stroke="rgba(33, 19, 101, 1)" stroke-width="1.5"></path><path d="M1117.68 199.72L1255.59 109.22" stroke="rgba(33, 19, 101, 1)" stroke-width="1.5"></path><path d="M1117.68 199.72L1287.63 227.3" stroke="rgba(33, 19, 101, 1)" stroke-width="1.5"></path><path d="M1107.17 400.63L1107.17 400.63" stroke="rgba(33, 19, 101, 1)" stroke-width="1.5"></path><path d="M1107.17 400.63L1151.27 502.63" stroke="rgba(33, 19, 101, 1)" stroke-width="1.5"></path><path d="M1107.17 400.63L948.86 371.59" stroke="rgba(33, 19, 101, 1)" stroke-width="1.5"></path><path d="M1151.27 502.63L1151.27 502.63" stroke="rgba(33, 19, 101, 1)" stroke-width="1.5"></path><path d="M1151.27 502.63L1253.29 513.54" stroke="rgba(33, 19, 101, 1)" stroke-width="1.5"></path><path d="M1151.27 502.63L1286.47 342.49" stroke="rgba(33, 19, 101, 1)" stroke-width="1.5"></path><path d="M1151.27 502.63L940.66 504.97" stroke="rgba(33, 19, 101, 1)" stroke-width="1.5"></path><path d="M1151.27 502.63L948.86 371.59" stroke="rgba(33, 19, 101, 1)" stroke-width="1.5"></path><path d="M1287.24 -67.49L1287.24 -67.49" stroke="rgba(33, 19, 101, 1)" stroke-width="1.5"></path><path d="M1287.24 -67.49L1416.95 -103.11" stroke="rgba(33, 19, 101, 1)" stroke-width="1.5"></path><path d="M1287.24 -67.49L1255.59 109.22" stroke="rgba(33, 19, 101, 1)" stroke-width="1.5"></path><path d="M1287.24 -67.49L1100.4 -81.4" stroke="rgba(33, 19, 101, 1)" stroke-width="1.5"></path><path d="M1287.24 -67.49L1436.39 50.63" stroke="rgba(33, 19, 101, 1)" stroke-width="1.5"></path><path d="M1255.59 109.22L1255.59 109.22" stroke="rgba(33, 19, 101, 1)" stroke-width="1.5"></path><path d="M1255.59 109.22L1287.63 227.3" stroke="rgba(33, 19, 101, 1)" stroke-width="1.5"></path><path d="M1287.63 227.3L1287.63 227.3" stroke="rgba(33, 19, 101, 1)" stroke-width="1.5"></path><path d="M1287.63 227.3L1286.47 342.49" stroke="rgba(33, 19, 101, 1)" stroke-width="1.5"></path><path d="M1287.63 227.3L1452.39 239.69" stroke="rgba(33, 19, 101, 1)" stroke-width="1.5"></path><path d="M1287.63 227.3L1455.44 342.35" stroke="rgba(33, 19, 101, 1)" stroke-width="1.5"></path><path d="M1286.47 342.49L1286.47 342.49" stroke="rgba(33, 19, 101, 1)" stroke-width="1.5"></path><path d="M1286.47 342.49L1455.44 342.35" stroke="rgba(33, 19, 101, 1)" stroke-width="1.5"></path><path d="M1286.47 342.49L1253.29 513.54" stroke="rgba(33, 19, 101, 1)" stroke-width="1.5"></path><path d="M1253.29 513.54L1253.29 513.54" stroke="rgba(33, 19, 101, 1)" stroke-width="1.5"></path><path d="M1253.29 513.54L1107.17 400.63" stroke="rgba(33, 19, 101, 1)" stroke-width="1.5"></path><path d="M1253.29 513.54L1396.76 699.04" stroke="rgba(33, 19, 101, 1)" stroke-width="1.5"></path><path d="M1416.95 -103.11L1416.95 -103.11" stroke="rgba(33, 19, 101, 1)" stroke-width="1.5"></path><path d="M1416.95 -103.11L1556.93 -60.87" stroke="rgba(33, 19, 101, 1)" stroke-width="1.5"></path><path d="M1416.95 -103.11L1436.39 50.63" stroke="rgba(33, 19, 101, 1)" stroke-width="1.5"></path><path d="M1416.95 -103.11L1558.2 68.78" stroke="rgba(33, 19, 101, 1)" stroke-width="1.5"></path><path d="M1416.95 -103.11L1255.59 109.22" stroke="rgba(33, 19, 101, 1)" stroke-width="1.5"></path><path d="M1416.95 -103.11L1100.4 -81.4" stroke="rgba(33, 19, 101, 1)" stroke-width="1.5"></path><path d="M1436.39 50.63L1436.39 50.63" stroke="rgba(33, 19, 101, 1)" stroke-width="1.5"></path><path d="M1436.39 50.63L1558.2 68.78" stroke="rgba(33, 19, 101, 1)" stroke-width="1.5"></path><path d="M1452.39 239.69L1452.39 239.69" stroke="rgba(33, 19, 101, 1)" stroke-width="1.5"></path><path d="M1452.39 239.69L1455.44 342.35" stroke="rgba(33, 19, 101, 1)" stroke-width="1.5"></path><path d="M1452.39 239.69L1573.22 189.21" stroke="rgba(33, 19, 101, 1)" stroke-width="1.5"></path><path d="M1455.44 342.35L1455.44 342.35" stroke="rgba(33, 19, 101, 1)" stroke-width="1.5"></path><path d="M1455.44 342.35L1594.61 404.91" stroke="rgba(33, 19, 101, 1)" stroke-width="1.5"></path><path d="M1455.44 342.35L1573.22 189.21" stroke="rgba(33, 19, 101, 1)" stroke-width="1.5"></path><path d="M1396.76 699.04L1396.76 699.04" stroke="rgba(33, 19, 101, 1)" stroke-width="1.5"></path><path d="M1396.76 699.04L1601.7 644.26" stroke="rgba(33, 19, 101, 1)" stroke-width="1.5"></path><path d="M1396.76 699.04L1566.93 516.4" stroke="rgba(33, 19, 101, 1)" stroke-width="1.5"></path><path d="M1396.76 699.04L1151.27 502.63" stroke="rgba(33, 19, 101, 1)" stroke-width="1.5"></path><path d="M1396.76 699.04L1594.61 404.91" stroke="rgba(33, 19, 101, 1)" stroke-width="1.5"></path><path d="M1556.93 -60.87L1556.93 -60.87" stroke="rgba(33, 19, 101, 1)" stroke-width="1.5"></path><path d="M1556.93 -60.87L1558.2 68.78" stroke="rgba(33, 19, 101, 1)" stroke-width="1.5"></path><path d="M1556.93 -60.87L1436.39 50.63" stroke="rgba(33, 19, 101, 1)" stroke-width="1.5"></path><path d="M1556.93 -60.87L1573.22 189.21" stroke="rgba(33, 19, 101, 1)" stroke-width="1.5"></path><path d="M1556.93 -60.87L1287.24 -67.49" stroke="rgba(33, 19, 101, 1)" stroke-width="1.5"></path><path d="M1556.93 -60.87L1452.39 239.69" stroke="rgba(33, 19, 101, 1)" stroke-width="1.5"></path><path d="M1558.2 68.78L1558.2 68.78" stroke="rgba(33, 19, 101, 1)" stroke-width="1.5"></path><path d="M1558.2 68.78L1573.22 189.21" stroke="rgba(33, 19, 101, 1)" stroke-width="1.5"></path><path d="M1558.2 68.78L1452.39 239.69" stroke="rgba(33, 19, 101, 1)" stroke-width="1.5"></path><path d="M1558.2 68.78L1455.44 342.35" stroke="rgba(33, 19, 101, 1)" stroke-width="1.5"></path><path d="M1573.22 189.21L1573.22 189.21" stroke="rgba(33, 19, 101, 1)" stroke-width="1.5"></path><path d="M1573.22 189.21L1436.39 50.63" stroke="rgba(33, 19, 101, 1)" stroke-width="1.5"></path><path d="M1594.61 404.91L1594.61 404.91" stroke="rgba(33, 19, 101, 1)" stroke-width="1.5"></path><path d="M1594.61 404.91L1566.93 516.4" stroke="rgba(33, 19, 101, 1)" stroke-width="1.5"></path><path d="M1594.61 404.91L1573.22 189.21" stroke="rgba(33, 19, 101, 1)" stroke-width="1.5"></path><path d="M1594.61 404.91L1452.39 239.69" stroke="rgba(33, 19, 101, 1)" stroke-width="1.5"></path><path d="M1566.93 516.4L1566.93 516.4" stroke="rgba(33, 19, 101, 1)" stroke-width="1.5"></path><path d="M1566.93 516.4L1601.7 644.26" stroke="rgba(33, 19, 101, 1)" stroke-width="1.5"></path><path d="M1566.93 516.4L1455.44 342.35" stroke="rgba(33, 19, 101, 1)" stroke-width="1.5"></path><path d="M1566.93 516.4L1452.39 239.69" stroke="rgba(33, 19, 101, 1)" stroke-width="1.5"></path><path d="M1566.93 516.4L1253.29 513.54" stroke="rgba(33, 19, 101, 1)" stroke-width="1.5"></path><path d="M1601.7 644.26L1601.7 644.26" stroke="rgba(33, 19, 101, 1)" stroke-width="1.5"></path><circle r="5" cx="-40.07" cy="364.52" fill="rgba(33, 19, 101, 1)"></circle><circle r="5" cx="-83.9" cy="500.11" fill="rgba(33, 19, 101, 1)"></circle><circle r="5" cx="-39.31" cy="698.52" fill="rgba(33, 19, 101, 1)"></circle><circle r="5" cx="45.62" cy="340.27" fill="rgba(33, 19, 101, 1)"></circle><circle r="5" cx="57.08" cy="536.31" fill="rgba(33, 19, 101, 1)"></circle><circle r="5" cx="85.38" cy="695.79" fill="rgba(33, 19, 101, 1)"></circle><circle r="5" cx="256.98" cy="372.53" fill="rgba(33, 19, 101, 1)"></circle><circle r="5" cx="261.67" cy="535.55" fill="rgba(33, 19, 101, 1)"></circle><circle r="5" cx="213.89" cy="664.99" fill="rgba(33, 19, 101, 1)"></circle><circle r="5" cx="371.33" cy="364.72" fill="rgba(33, 19, 101, 1)"></circle><circle r="5" cx="348.2" cy="492.79" fill="rgba(33, 19, 101, 1)"></circle><circle r="5" cx="402.94" cy="691.4" fill="rgba(33, 19, 101, 1)"></circle><circle r="5" cx="548.64" cy="410.18" fill="rgba(33, 19, 101, 1)"></circle><circle r="5" cx="514.23" cy="507.42" fill="rgba(33, 19, 101, 1)"></circle><circle r="5" cx="534.22" cy="651.85" fill="rgba(33, 19, 101, 1)"></circle><circle r="5" cx="705.43" cy="217.91" fill="rgba(33, 19, 101, 1)"></circle><circle r="5" cx="680.05" cy="358.27" fill="rgba(33, 19, 101, 1)"></circle><circle r="5" cx="649.34" cy="551.55" fill="rgba(33, 19, 101, 1)"></circle><circle r="5" cx="860.74" cy="91.1" fill="rgba(33, 19, 101, 1)"></circle><circle r="5" cx="848.96" cy="237.2" fill="rgba(33, 19, 101, 1)"></circle><circle r="5" cx="794.46" cy="394.9" fill="rgba(33, 19, 101, 1)"></circle><circle r="5" cx="842.35" cy="535.65" fill="rgba(33, 19, 101, 1)"></circle><circle r="5" cx="860.46" cy="709.72" fill="rgba(33, 19, 101, 1)"></circle><circle r="5" cx="992.59" cy="-84.38" fill="rgba(33, 19, 101, 1)"></circle><circle r="5" cx="942.91" cy="89.73" fill="rgba(33, 19, 101, 1)"></circle><circle r="5" cx="948.86" cy="371.59" fill="rgba(33, 19, 101, 1)"></circle><circle r="5" cx="940.66" cy="504.97" fill="rgba(33, 19, 101, 1)"></circle><circle r="5" cx="984.25" cy="677.97" fill="rgba(33, 19, 101, 1)"></circle><circle r="5" cx="1100.4" cy="-81.4" fill="rgba(33, 19, 101, 1)"></circle><circle r="5" cx="1099.06" cy="88.76" fill="rgba(33, 19, 101, 1)"></circle><circle r="5" cx="1117.68" cy="199.72" fill="rgba(33, 19, 101, 1)"></circle><circle r="5" cx="1107.17" cy="400.63" fill="rgba(33, 19, 101, 1)"></circle><circle r="5" cx="1151.27" cy="502.63" fill="rgba(33, 19, 101, 1)"></circle><circle r="5" cx="1287.24" cy="-67.49" fill="rgba(33, 19, 101, 1)"></circle><circle r="5" cx="1255.59" cy="109.22" fill="rgba(33, 19, 101, 1)"></circle><circle r="5" cx="1287.63" cy="227.3" fill="rgba(33, 19, 101, 1)"></circle><circle r="5" cx="1286.47" cy="342.49" fill="rgba(33, 19, 101, 1)"></circle><circle r="5" cx="1253.29" cy="513.54" fill="rgba(33, 19, 101, 1)"></circle><circle r="5" cx="1416.95" cy="-103.11" fill="rgba(33, 19, 101, 1)"></circle><circle r="5" cx="1436.39" cy="50.63" fill="rgba(33, 19, 101, 1)"></circle><circle r="5" cx="1452.39" cy="239.69" fill="rgba(33, 19, 101, 1)"></circle><circle r="5" cx="1455.44" cy="342.35" fill="rgba(33, 19, 101, 1)"></circle><circle r="5" cx="1396.76" cy="699.04" fill="rgba(33, 19, 101, 1)"></circle><circle r="5" cx="1556.93" cy="-60.87" fill="rgba(33, 19, 101, 1)"></circle><circle r="5" cx="1558.2" cy="68.78" fill="rgba(33, 19, 101, 1)"></circle><circle r="5" cx="1573.22" cy="189.21" fill="rgba(33, 19, 101, 1)"></circle><circle r="5" cx="1594.61" cy="404.91" fill="rgba(33, 19, 101, 1)"></circle><circle r="5" cx="1566.93" cy="516.4" fill="rgba(33, 19, 101, 1)"></circle><circle r="5" cx="1601.7" cy="644.26" fill="rgba(33, 19, 101, 1)"></circle><path d="M1009.86 394.85L1009.86 394.85" stroke="hsl(271, 69.8%, 77.7%)" stroke-width="1.5"></path><path d="M1009.86 394.85L1141.7 406.85" stroke="hsl(271, 69.8%, 77.7%)" stroke-width="1.5"></path><path d="M1009.86 394.85L948.24 255.17" stroke="hsl(271, 69.8%, 77.7%)" stroke-width="1.5"></path><path d="M1009.86 394.85L950.19 560.85" stroke="hsl(271, 69.8%, 77.7%)" stroke-width="1.5"></path><path d="M1394.81 -98.46L1394.81 -98.46" stroke="hsl(271, 69.8%, 77.7%)" stroke-width="1.5"></path><path d="M1394.81 -98.46L1298.87 -107.85" stroke="hsl(271, 69.8%, 77.7%)" stroke-width="1.5"></path><path d="M1394.81 -98.46L1440.4 71.67" stroke="hsl(271, 69.8%, 77.7%)" stroke-width="1.5"></path><path d="M1394.81 -98.46L1608.82 -50.73" stroke="hsl(271, 69.8%, 77.7%)" stroke-width="1.5"></path><path d="M1394.81 -98.46L1574.62 47.48" stroke="hsl(271, 69.8%, 77.7%)" stroke-width="1.5"></path><path d="M1394.81 -98.46L1428.87 233.27" stroke="hsl(271, 69.8%, 77.7%)" stroke-width="1.5"></path><path d="M1428.87 233.27L1428.87 233.27" stroke="hsl(271, 69.8%, 77.7%)" stroke-width="1.5"></path><path d="M1428.87 233.27L1429.22 355.36" stroke="hsl(271, 69.8%, 77.7%)" stroke-width="1.5"></path><path d="M1428.87 233.27L1440.4 71.67" stroke="hsl(271, 69.8%, 77.7%)" stroke-width="1.5"></path><path d="M1428.87 233.27L1607.69 225.07" stroke="hsl(271, 69.8%, 77.7%)" stroke-width="1.5"></path><path d="M1428.87 233.27L1247.79 232.78" stroke="hsl(271, 69.8%, 77.7%)" stroke-width="1.5"></path><path d="M1398.75 704.4L1398.75 704.4" stroke="hsl(271, 69.8%, 77.7%)" stroke-width="1.5"></path><path d="M1398.75 704.4L1277.71 698.98" stroke="hsl(271, 69.8%, 77.7%)" stroke-width="1.5"></path><path d="M1398.75 704.4L1446.77 542.22" stroke="hsl(271, 69.8%, 77.7%)" stroke-width="1.5"></path><path d="M1398.75 704.4L1567.24 674.94" stroke="hsl(271, 69.8%, 77.7%)" stroke-width="1.5"></path><path d="M1398.75 704.4L1557.08 540.06" stroke="hsl(271, 69.8%, 77.7%)" stroke-width="1.5"></path><path d="M1398.75 704.4L1256.51 524.02" stroke="hsl(271, 69.8%, 77.7%)" stroke-width="1.5"></path><path d="M1398.75 704.4L1155.86 658.92" stroke="hsl(271, 69.8%, 77.7%)" stroke-width="1.5"></path><path d="M-99.47 523.13L-99.47 523.13" stroke="hsl(271, 69.8%, 77.7%)" stroke-width="1.5"></path><path d="M-99.47 523.13L-72.88 664.42" stroke="hsl(271, 69.8%, 77.7%)" stroke-width="1.5"></path><path d="M-99.47 523.13L45.57 493.55" stroke="hsl(271, 69.8%, 77.7%)" stroke-width="1.5"></path><path d="M-72.88 664.42L-72.88 664.42" stroke="hsl(271, 69.8%, 77.7%)" stroke-width="1.5"></path><path d="M-72.88 664.42L110.32 651.91" stroke="hsl(271, 69.8%, 77.7%)" stroke-width="1.5"></path><path d="M45.57 493.55L45.57 493.55" stroke="hsl(271, 69.8%, 77.7%)" stroke-width="1.5"></path><path d="M45.57 493.55L110.32 651.91" stroke="hsl(271, 69.8%, 77.7%)" stroke-width="1.5"></path><path d="M45.57 493.55L248.66 500.94" stroke="hsl(271, 69.8%, 77.7%)" stroke-width="1.5"></path><path d="M110.32 651.91L110.32 651.91" stroke="hsl(271, 69.8%, 77.7%)" stroke-width="1.5"></path><path d="M110.32 651.91L196.43 672.43" stroke="hsl(271, 69.8%, 77.7%)" stroke-width="1.5"></path><path d="M110.32 651.91L248.66 500.94" stroke="hsl(271, 69.8%, 77.7%)" stroke-width="1.5"></path><path d="M110.32 651.91L-99.47 523.13" stroke="hsl(271, 69.8%, 77.7%)" stroke-width="1.5"></path><path d="M110.32 651.91L406.6 664.96" stroke="hsl(271, 69.8%, 77.7%)" stroke-width="1.5"></path><path d="M248.66 500.94L248.66 500.94" stroke="hsl(271, 69.8%, 77.7%)" stroke-width="1.5"></path><path d="M248.66 500.94L411.54 515.86" stroke="hsl(271, 69.8%, 77.7%)" stroke-width="1.5"></path><path d="M248.66 500.94L196.43 672.43" stroke="hsl(271, 69.8%, 77.7%)" stroke-width="1.5"></path><path d="M196.43 672.43L196.43 672.43" stroke="hsl(271, 69.8%, 77.7%)" stroke-width="1.5"></path><path d="M196.43 672.43L406.6 664.96" stroke="hsl(271, 69.8%, 77.7%)" stroke-width="1.5"></path><path d="M196.43 672.43L45.57 493.55" stroke="hsl(271, 69.8%, 77.7%)" stroke-width="1.5"></path><path d="M196.43 672.43L411.54 515.86" stroke="hsl(271, 69.8%, 77.7%)" stroke-width="1.5"></path><path d="M196.43 672.43L-72.88 664.42" stroke="hsl(271, 69.8%, 77.7%)" stroke-width="1.5"></path><path d="M411.54 515.86L411.54 515.86" stroke="hsl(271, 69.8%, 77.7%)" stroke-width="1.5"></path><path d="M411.54 515.86L559.16 510.42" stroke="hsl(271, 69.8%, 77.7%)" stroke-width="1.5"></path><path d="M411.54 515.86L406.6 664.96" stroke="hsl(271, 69.8%, 77.7%)" stroke-width="1.5"></path><path d="M411.54 515.86L552.94 695.85" stroke="hsl(271, 69.8%, 77.7%)" stroke-width="1.5"></path><path d="M411.54 515.86L642.43 394.19" stroke="hsl(271, 69.8%, 77.7%)" stroke-width="1.5"></path><path d="M406.6 664.96L406.6 664.96" stroke="hsl(271, 69.8%, 77.7%)" stroke-width="1.5"></path><path d="M406.6 664.96L552.94 695.85" stroke="hsl(271, 69.8%, 77.7%)" stroke-width="1.5"></path><path d="M406.6 664.96L559.16 510.42" stroke="hsl(271, 69.8%, 77.7%)" stroke-width="1.5"></path><path d="M406.6 664.96L248.66 500.94" stroke="hsl(271, 69.8%, 77.7%)" stroke-width="1.5"></path><path d="M406.6 664.96L700.82 678.13" stroke="hsl(271, 69.8%, 77.7%)" stroke-width="1.5"></path><path d="M559.16 510.42L559.16 510.42" stroke="hsl(271, 69.8%, 77.7%)" stroke-width="1.5"></path><path d="M559.16 510.42L679.33 547.18" stroke="hsl(271, 69.8%, 77.7%)" stroke-width="1.5"></path><path d="M559.16 510.42L642.43 394.19" stroke="hsl(271, 69.8%, 77.7%)" stroke-width="1.5"></path><path d="M552.94 695.85L552.94 695.85" stroke="hsl(271, 69.8%, 77.7%)" stroke-width="1.5"></path><path d="M552.94 695.85L700.82 678.13" stroke="hsl(271, 69.8%, 77.7%)" stroke-width="1.5"></path><path d="M552.94 695.85L559.16 510.42" stroke="hsl(271, 69.8%, 77.7%)" stroke-width="1.5"></path><path d="M642.43 394.19L642.43 394.19" stroke="hsl(271, 69.8%, 77.7%)" stroke-width="1.5"></path><path d="M642.43 394.19L679.33 547.18" stroke="hsl(271, 69.8%, 77.7%)" stroke-width="1.5"></path><path d="M642.43 394.19L818.64 370.24" stroke="hsl(271, 69.8%, 77.7%)" stroke-width="1.5"></path><path d="M679.33 547.18L679.33 547.18" stroke="hsl(271, 69.8%, 77.7%)" stroke-width="1.5"></path><path d="M700.82 678.13L700.82 678.13" stroke="hsl(271, 69.8%, 77.7%)" stroke-width="1.5"></path><path d="M700.82 678.13L791.55 678.41" stroke="hsl(271, 69.8%, 77.7%)" stroke-width="1.5"></path><path d="M700.82 678.13L679.33 547.18" stroke="hsl(271, 69.8%, 77.7%)" stroke-width="1.5"></path><path d="M700.82 678.13L851.79 562.15" stroke="hsl(271, 69.8%, 77.7%)" stroke-width="1.5"></path><path d="M700.82 678.13L559.16 510.42" stroke="hsl(271, 69.8%, 77.7%)" stroke-width="1.5"></path><path d="M700.82 678.13L950.19 560.85" stroke="hsl(271, 69.8%, 77.7%)" stroke-width="1.5"></path><path d="M818.64 370.24L818.64 370.24" stroke="hsl(271, 69.8%, 77.7%)" stroke-width="1.5"></path><path d="M818.64 370.24L948.24 255.17" stroke="hsl(271, 69.8%, 77.7%)" stroke-width="1.5"></path><path d="M851.79 562.15L851.79 562.15" stroke="hsl(271, 69.8%, 77.7%)" stroke-width="1.5"></path><path d="M851.79 562.15L950.19 560.85" stroke="hsl(271, 69.8%, 77.7%)" stroke-width="1.5"></path><path d="M851.79 562.15L791.55 678.41" stroke="hsl(271, 69.8%, 77.7%)" stroke-width="1.5"></path><path d="M851.79 562.15L679.33 547.18" stroke="hsl(271, 69.8%, 77.7%)" stroke-width="1.5"></path><path d="M851.79 562.15L1009.81 645.95" stroke="hsl(271, 69.8%, 77.7%)" stroke-width="1.5"></path><path d="M791.55 678.41L791.55 678.41" stroke="hsl(271, 69.8%, 77.7%)" stroke-width="1.5"></path><path d="M948.24 255.17L948.24 255.17" stroke="hsl(271, 69.8%, 77.7%)" stroke-width="1.5"></path><path d="M948.24 255.17L1107.04 226.21" stroke="hsl(271, 69.8%, 77.7%)" stroke-width="1.5"></path><path d="M950.19 560.85L950.19 560.85" stroke="hsl(271, 69.8%, 77.7%)" stroke-width="1.5"></path><path d="M1009.81 645.95L1009.81 645.95" stroke="hsl(271, 69.8%, 77.7%)" stroke-width="1.5"></path><path d="M1009.81 645.95L950.19 560.85" stroke="hsl(271, 69.8%, 77.7%)" stroke-width="1.5"></path><path d="M1009.81 645.95L1155.86 658.92" stroke="hsl(271, 69.8%, 77.7%)" stroke-width="1.5"></path><path d="M1009.81 645.95L1125.62 543.05" stroke="hsl(271, 69.8%, 77.7%)" stroke-width="1.5"></path><path d="M1009.81 645.95L791.55 678.41" stroke="hsl(271, 69.8%, 77.7%)" stroke-width="1.5"></path><path d="M1107.04 226.21L1107.04 226.21" stroke="hsl(271, 69.8%, 77.7%)" stroke-width="1.5"></path><path d="M1107.04 226.21L1247.79 232.78" stroke="hsl(271, 69.8%, 77.7%)" stroke-width="1.5"></path><path d="M1107.04 226.21L1141.7 406.85" stroke="hsl(271, 69.8%, 77.7%)" stroke-width="1.5"></path><path d="M1107.04 226.21L1009.86 394.85" stroke="hsl(271, 69.8%, 77.7%)" stroke-width="1.5"></path><path d="M1141.7 406.85L1141.7 406.85" stroke="hsl(271, 69.8%, 77.7%)" stroke-width="1.5"></path><path d="M1141.7 406.85L1258.35 401.12" stroke="hsl(271, 69.8%, 77.7%)" stroke-width="1.5"></path><path d="M1141.7 406.85L1125.62 543.05" stroke="hsl(271, 69.8%, 77.7%)" stroke-width="1.5"></path><path d="M1141.7 406.85L1256.51 524.02" stroke="hsl(271, 69.8%, 77.7%)" stroke-width="1.5"></path><path d="M1141.7 406.85L1247.79 232.78" stroke="hsl(271, 69.8%, 77.7%)" stroke-width="1.5"></path><path d="M1125.62 543.05L1125.62 543.05" stroke="hsl(271, 69.8%, 77.7%)" stroke-width="1.5"></path><path d="M1125.62 543.05L1155.86 658.92" stroke="hsl(271, 69.8%, 77.7%)" stroke-width="1.5"></path><path d="M1125.62 543.05L1256.51 524.02" stroke="hsl(271, 69.8%, 77.7%)" stroke-width="1.5"></path><path d="M1155.86 658.92L1155.86 658.92" stroke="hsl(271, 69.8%, 77.7%)" stroke-width="1.5"></path><path d="M1155.86 658.92L1277.71 698.98" stroke="hsl(271, 69.8%, 77.7%)" stroke-width="1.5"></path><path d="M1298.87 -107.85L1298.87 -107.85" stroke="hsl(271, 69.8%, 77.7%)" stroke-width="1.5"></path><path d="M1298.87 -107.85L1440.4 71.67" stroke="hsl(271, 69.8%, 77.7%)" stroke-width="1.5"></path><path d="M1247.79 232.78L1247.79 232.78" stroke="hsl(271, 69.8%, 77.7%)" stroke-width="1.5"></path><path d="M1247.79 232.78L1258.35 401.12" stroke="hsl(271, 69.8%, 77.7%)" stroke-width="1.5"></path><path d="M1258.35 401.12L1258.35 401.12" stroke="hsl(271, 69.8%, 77.7%)" stroke-width="1.5"></path><path d="M1258.35 401.12L1256.51 524.02" stroke="hsl(271, 69.8%, 77.7%)" stroke-width="1.5"></path><path d="M1256.51 524.02L1256.51 524.02" stroke="hsl(271, 69.8%, 77.7%)" stroke-width="1.5"></path><path d="M1256.51 524.02L1155.86 658.92" stroke="hsl(271, 69.8%, 77.7%)" stroke-width="1.5"></path><path d="M1277.71 698.98L1277.71 698.98" stroke="hsl(271, 69.8%, 77.7%)" stroke-width="1.5"></path><path d="M1277.71 698.98L1256.51 524.02" stroke="hsl(271, 69.8%, 77.7%)" stroke-width="1.5"></path><path d="M1277.71 698.98L1125.62 543.05" stroke="hsl(271, 69.8%, 77.7%)" stroke-width="1.5"></path><path d="M1440.4 71.67L1440.4 71.67" stroke="hsl(271, 69.8%, 77.7%)" stroke-width="1.5"></path><path d="M1440.4 71.67L1574.62 47.48" stroke="hsl(271, 69.8%, 77.7%)" stroke-width="1.5"></path><path d="M1440.4 71.67L1608.82 -50.73" stroke="hsl(271, 69.8%, 77.7%)" stroke-width="1.5"></path><path d="M1440.4 71.67L1607.69 225.07" stroke="hsl(271, 69.8%, 77.7%)" stroke-width="1.5"></path><path d="M1429.22 355.36L1429.22 355.36" stroke="hsl(271, 69.8%, 77.7%)" stroke-width="1.5"></path><path d="M1429.22 355.36L1258.35 401.12" stroke="hsl(271, 69.8%, 77.7%)" stroke-width="1.5"></path><path d="M1429.22 355.36L1606.09 376.42" stroke="hsl(271, 69.8%, 77.7%)" stroke-width="1.5"></path><path d="M1429.22 355.36L1446.77 542.22" stroke="hsl(271, 69.8%, 77.7%)" stroke-width="1.5"></path><path d="M1429.22 355.36L1247.79 232.78" stroke="hsl(271, 69.8%, 77.7%)" stroke-width="1.5"></path><path d="M1446.77 542.22L1446.77 542.22" stroke="hsl(271, 69.8%, 77.7%)" stroke-width="1.5"></path><path d="M1446.77 542.22L1557.08 540.06" stroke="hsl(271, 69.8%, 77.7%)" stroke-width="1.5"></path><path d="M1608.82 -50.73L1608.82 -50.73" stroke="hsl(271, 69.8%, 77.7%)" stroke-width="1.5"></path><path d="M1608.82 -50.73L1574.62 47.48" stroke="hsl(271, 69.8%, 77.7%)" stroke-width="1.5"></path><path d="M1574.62 47.48L1574.62 47.48" stroke="hsl(271, 69.8%, 77.7%)" stroke-width="1.5"></path><path d="M1574.62 47.48L1607.69 225.07" stroke="hsl(271, 69.8%, 77.7%)" stroke-width="1.5"></path><path d="M1607.69 225.07L1607.69 225.07" stroke="hsl(271, 69.8%, 77.7%)" stroke-width="1.5"></path><path d="M1607.69 225.07L1606.09 376.42" stroke="hsl(271, 69.8%, 77.7%)" stroke-width="1.5"></path><path d="M1606.09 376.42L1606.09 376.42" stroke="hsl(271, 69.8%, 77.7%)" stroke-width="1.5"></path><path d="M1606.09 376.42L1557.08 540.06" stroke="hsl(271, 69.8%, 77.7%)" stroke-width="1.5"></path><path d="M1606.09 376.42L1428.87 233.27" stroke="hsl(271, 69.8%, 77.7%)" stroke-width="1.5"></path><path d="M1606.09 376.42L1446.77 542.22" stroke="hsl(271, 69.8%, 77.7%)" stroke-width="1.5"></path><path d="M1557.08 540.06L1557.08 540.06" stroke="hsl(271, 69.8%, 77.7%)" stroke-width="1.5"></path><path d="M1557.08 540.06L1567.24 674.94" stroke="hsl(271, 69.8%, 77.7%)" stroke-width="1.5"></path><path d="M1567.24 674.94L1567.24 674.94" stroke="hsl(271, 69.8%, 77.7%)" stroke-width="1.5"></path><path d="M1567.24 674.94L1446.77 542.22" stroke="hsl(271, 69.8%, 77.7%)" stroke-width="1.5"></path><path d="M1567.24 674.94L1277.71 698.98" stroke="hsl(271, 69.8%, 77.7%)" stroke-width="1.5"></path><circle r="25" cx="1009.86" cy="394.85" fill="url(#SvgjsRadialGradient1008)"></circle><circle r="25" cx="1394.81" cy="-98.46" fill="url(#SvgjsRadialGradient1008)"></circle><circle r="25" cx="1428.87" cy="233.27" fill="url(#SvgjsRadialGradient1008)"></circle><circle r="25" cx="1398.75" cy="704.4" fill="url(#SvgjsRadialGradient1008)"></circle><circle r="5" cx="-99.47" cy="523.13" fill="#cda8f0"></circle><circle r="5" cx="-72.88" cy="664.42" fill="#cda8f0"></circle><circle r="5" cx="45.57" cy="493.55" fill="#cda8f0"></circle><circle r="5" cx="110.32" cy="651.91" fill="#cda8f0"></circle><circle r="5" cx="248.66" cy="500.94" fill="#cda8f0"></circle><circle r="5" cx="196.43" cy="672.43" fill="#cda8f0"></circle><circle r="5" cx="411.54" cy="515.86" fill="#cda8f0"></circle><circle r="5" cx="406.6" cy="664.96" fill="#cda8f0"></circle><circle r="5" cx="559.16" cy="510.42" fill="#cda8f0"></circle><circle r="5" cx="552.94" cy="695.85" fill="#cda8f0"></circle><circle r="5" cx="642.43" cy="394.19" fill="#cda8f0"></circle><circle r="5" cx="679.33" cy="547.18" fill="#cda8f0"></circle><circle r="5" cx="700.82" cy="678.13" fill="#cda8f0"></circle><circle r="5" cx="818.64" cy="370.24" fill="#cda8f0"></circle><circle r="5" cx="851.79" cy="562.15" fill="#cda8f0"></circle><circle r="5" cx="791.55" cy="678.41" fill="#cda8f0"></circle><circle r="5" cx="948.24" cy="255.17" fill="#cda8f0"></circle><circle r="5" cx="950.19" cy="560.85" fill="#cda8f0"></circle><circle r="5" cx="1009.81" cy="645.95" fill="#cda8f0"></circle><circle r="5" cx="1107.04" cy="226.21" fill="#cda8f0"></circle><circle r="5" cx="1141.7" cy="406.85" fill="#cda8f0"></circle><circle r="5" cx="1125.62" cy="543.05" fill="#cda8f0"></circle><circle r="5" cx="1155.86" cy="658.92" fill="#cda8f0"></circle><circle r="5" cx="1298.87" cy="-107.85" fill="#cda8f0"></circle><circle r="5" cx="1247.79" cy="232.78" fill="#cda8f0"></circle><circle r="5" cx="1258.35" cy="401.12" fill="#cda8f0"></circle><circle r="5" cx="1256.51" cy="524.02" fill="#cda8f0"></circle><circle r="5" cx="1277.71" cy="698.98" fill="#cda8f0"></circle><circle r="5" cx="1440.4" cy="71.67" fill="#cda8f0"></circle><circle r="5" cx="1429.22" cy="355.36" fill="#cda8f0"></circle><circle r="5" cx="1446.77" cy="542.22" fill="#cda8f0"></circle><circle r="5" cx="1608.82" cy="-50.73" fill="#cda8f0"></circle><circle r="5" cx="1574.62" cy="47.48" fill="#cda8f0"></circle><circle r="5" cx="1607.69" cy="225.07" fill="#cda8f0"></circle><circle r="5" cx="1606.09" cy="376.42" fill="#cda8f0"></circle><circle r="5" cx="1557.08" cy="540.06" fill="#cda8f0"></circle><circle r="5" cx="1567.24" cy="674.94" fill="#cda8f0"></circle></g><defs><mask id="SvgjsMask1006"><rect width="1440" height="560" fill="#ffffff"></rect></mask><linearGradient x1="15.28%" y1="-39.29%" x2="84.72%" y2="139.29%" gradientUnits="userSpaceOnUse" id="SvgjsLinearGradient1007"><stop stop-color="#0e2a47" offset="0"></stop><stop stop-color="#00459e" offset="1"></stop></linearGradient><radialGradient id="SvgjsRadialGradient1008"><stop stop-color="#ffffff" offset="0.1"></stop><stop stop-color="rgba(155, 81, 224, 1)" offset="0.2"></stop><stop stop-color="rgba(155, 81, 224, 0)" offset="1"></stop></radialGradient></defs></svg>